<svg width="338" height="336" viewBox="0 0 338 336" fill="none" xmlns="http://www.w3.org/2000/svg">
<path d="M333 270.457L304.551 281.167L321.286 306.52L292 298.404L290.661 328.778L271.667 305.014L251.167 331.79L230.584 305.014L210.084 331.79L189.5 305.014L169 331.79L148.416 305.014L127.916 331.79L107.333 305.014L86.8327 331.79L66.249 305.014L47.3388 328.778L46 298.404L16.7143 306.52L33.449 281.167L5 270.457L31.7755 249.957L5 229.373L31.7755 208.873L5 188.29L31.7755 167.79L5 147.206L31.7755 126.706L5 106.122L31.7755 85.6224L5 65.0388L33.449 54.4122L16.7143 29.0592L46 37.1755L47.3388 6.80204L66.249 30.5653L86.8327 3.78979L107.333 30.5653L127.916 3.78979L148.416 30.5653L169 3.78979L189.5 30.5653L210.084 3.78979L230.584 30.5653L251.167 3.78979L271.667 30.5653L290.661 6.80204L292 37.1755L321.286 29.0592L304.551 54.4122L333 65.0388L306.224 85.6224L333 106.122L306.224 126.706L333 147.206L306.224 167.79L333 188.29L306.224 208.873L333 229.373L306.894 254.057L333 270.457Z" stroke="#CFB2F5" stroke-width="4" stroke-miterlimit="10"/>
</svg>
